<svg width="81" height="81" viewBox="0 0 81 81" fill="none" xmlns="http://www.w3.org/2000/svg">
<rect x="1" y="1" width="79" height="79" rx="14" stroke="#BDBDBD" stroke-width="2" stroke-dasharray="4 4"/>
<path d="M50.58 39.06H41.94V30.42C41.94 30.0381 41.7883 29.6718 41.5182 29.4017C41.2482 29.1317 40.8819 28.98 40.5 28.98C40.1181 28.98 39.7518 29.1317 39.4817 29.4017C39.2117 29.6718 39.06 30.0381 39.06 30.42V39.06H30.42C30.0381 39.06 29.6718 39.2117 29.4017 39.4817C29.1317 39.7518 28.98 40.1181 28.98 40.5C28.98 40.8819 29.1317 41.2482 29.4017 41.5182C29.6718 41.7883 30.0381 41.94 30.42 41.94H39.06V50.58C39.06 50.9619 39.2117 51.3282 39.4817 51.5982C39.7518 51.8683 40.1181 52.02 40.5 52.02C40.8819 52.02 41.2482 51.8683 41.5182 51.5982C41.7883 51.3282 41.94 50.9619 41.94 50.58V41.94H50.58C50.9619 41.94 51.3282 41.7883 51.5982 41.5182C51.8683 41.2482 52.02 40.8819 52.02 40.5C52.02 40.1181 51.8683 39.7518 51.5982 39.4817C51.3282 39.2117 50.9619 39.06 50.58 39.06Z" fill="#BDBDBD"/>
</svg>
