<svg width="8" height="6" viewBox="0 0 8 6" fill="none" xmlns="http://www.w3.org/2000/svg">
<path d="M7.33334 2.06L4.47334 4.88666C4.41136 4.94915 4.33763 4.99875 4.25639 5.03259C4.17515 5.06644 4.08801 5.08386 4.00001 5.08386C3.912 5.08386 3.82486 5.06644 3.74362 5.03259C3.66238 4.99875 3.58865 4.94915 3.52667 4.88666L0.700006 2.06C0.637521 1.99802 0.587925 1.92429 0.554079 1.84305C0.520233 1.76181 0.502808 1.67467 0.502808 1.58666C0.502808 1.49866 0.520233 1.41152 0.554079 1.33028C0.587925 1.24904 0.637521 1.17531 0.700006 1.11333C0.824915 0.989163 0.993883 0.919468 1.17001 0.919468C1.34613 0.919468 1.5151 0.989163 1.64001 1.11333L4.00001 3.47333L6.36001 1.11333C6.48418 0.990167 6.65178 0.920733 6.82667 0.919997C6.91441 0.919489 7.00139 0.936306 7.08261 0.969482C7.16384 1.00266 7.23771 1.05154 7.30001 1.11333C7.36472 1.17308 7.41696 1.24505 7.4537 1.3251C7.49043 1.40515 7.51095 1.49169 7.51405 1.57971C7.51714 1.66774 7.50277 1.7555 7.47175 1.83794C7.44074 1.92037 7.39369 1.99585 7.33334 2.06Z" fill="#828282"/>
</svg>
