<svg width="8" height="6" viewBox="0 0 8 6" fill="none" xmlns="http://www.w3.org/2000/svg">
<path d="M7.74999 1.94251L4.53249 5.12251C4.46277 5.19281 4.37982 5.2486 4.28842 5.28668C4.19703 5.32476 4.099 5.34436 3.99999 5.34436C3.90098 5.34436 3.80295 5.32476 3.71156 5.28668C3.62016 5.2486 3.53721 5.19281 3.46749 5.12251L0.287492 1.94251C0.217196 1.87279 0.1614 1.78984 0.123323 1.69844C0.0852468 1.60705 0.0656433 1.50902 0.0656433 1.41001C0.0656433 1.311 0.0852468 1.21297 0.123323 1.12158C0.1614 1.03018 0.217196 0.947234 0.287492 0.877512C0.428014 0.737823 0.618103 0.659417 0.816242 0.659417C1.01438 0.659417 1.20447 0.737823 1.34499 0.877512L3.99999 3.53251L6.65499 0.877512C6.79469 0.738953 6.98324 0.66084 7.17999 0.660011C7.2787 0.659441 7.37654 0.678359 7.46792 0.715683C7.5593 0.753006 7.64241 0.808001 7.71249 0.877512C7.7853 0.944725 7.84406 1.0257 7.88539 1.11576C7.92672 1.20581 7.9498 1.30317 7.95329 1.40219C7.95677 1.50122 7.9406 1.59995 7.90571 1.6927C7.87082 1.78544 7.81789 1.87034 7.74999 1.94251Z" fill="#828282"/>
</svg>
