<svg width="12" height="8" viewBox="0 0 12 8" fill="none" xmlns="http://www.w3.org/2000/svg">
<path d="M11 2.59L6.71001 6.83C6.61705 6.92373 6.50645 6.99813 6.38459 7.04889C6.26273 7.09966 6.13202 7.1258 6.00001 7.1258C5.868 7.1258 5.73729 7.09966 5.61543 7.04889C5.49357 6.99813 5.38297 6.92373 5.29001 6.83L1.05001 2.59C0.956281 2.49704 0.881887 2.38644 0.831118 2.26458C0.780349 2.14272 0.754211 2.01201 0.754211 1.88C0.754211 1.74799 0.780349 1.61729 0.831118 1.49543C0.881887 1.37357 0.956281 1.26297 1.05001 1.17C1.23737 0.983752 1.49082 0.87921 1.75501 0.87921C2.0192 0.87921 2.27265 0.983752 2.46001 1.17L6.00001 4.71L9.54001 1.17C9.72627 0.985259 9.97767 0.881108 10.24 0.880003C10.3716 0.879242 10.5021 0.904467 10.6239 0.954231C10.7458 1.004 10.8566 1.07732 10.95 1.17C11.0471 1.25962 11.1254 1.36759 11.1805 1.48766C11.2357 1.60774 11.2664 1.73754 11.2711 1.86958C11.2757 2.00161 11.2542 2.13326 11.2076 2.25692C11.1611 2.38057 11.0905 2.49378 11 2.59Z" fill="#333333"/>
</svg>
