<svg width="25" height="27" viewBox="0 0 25 27" fill="none" xmlns="http://www.w3.org/2000/svg">
<path d="M22.8333 5.75004H17.6667V4.45837C17.6667 3.43066 17.2584 2.44504 16.5317 1.71834C15.805 0.991632 14.8194 0.583374 13.7917 0.583374H11.2083C10.1806 0.583374 9.195 0.991632 8.46829 1.71834C7.74159 2.44504 7.33333 3.43066 7.33333 4.45837V5.75004H2.16667C1.8241 5.75004 1.49555 5.88613 1.25332 6.12836C1.01109 6.3706 0.875 6.69914 0.875 7.04171C0.875 7.38428 1.01109 7.71282 1.25332 7.95505C1.49555 8.19729 1.8241 8.33337 2.16667 8.33337H3.45833V22.5417C3.45833 23.5694 3.86659 24.555 4.59329 25.2817C5.32 26.0084 6.30562 26.4167 7.33333 26.4167H17.6667C18.6944 26.4167 19.68 26.0084 20.4067 25.2817C21.1334 24.555 21.5417 23.5694 21.5417 22.5417V8.33337H22.8333C23.1759 8.33337 23.5044 8.19729 23.7467 7.95505C23.9889 7.71282 24.125 7.38428 24.125 7.04171C24.125 6.69914 23.9889 6.3706 23.7467 6.12836C23.5044 5.88613 23.1759 5.75004 22.8333 5.75004ZM9.91667 4.45837C9.91667 4.1158 10.0528 3.78726 10.295 3.54503C10.5372 3.30279 10.8658 3.16671 11.2083 3.16671H13.7917C14.1342 3.16671 14.4628 3.30279 14.705 3.54503C14.9472 3.78726 15.0833 4.1158 15.0833 4.45837V5.75004H9.91667V4.45837ZM18.9583 22.5417C18.9583 22.8843 18.8222 23.2128 18.58 23.4551C18.3378 23.6973 18.0092 23.8334 17.6667 23.8334H7.33333C6.99076 23.8334 6.66222 23.6973 6.41999 23.4551C6.17775 23.2128 6.04167 22.8843 6.04167 22.5417V8.33337H18.9583V22.5417Z" fill="white"/>
</svg>
