<svg width="40" height="30" viewBox="0 0 40 30" fill="none" xmlns="http://www.w3.org/2000/svg">
<path d="M40 27.215V28.1139C40 28.8587 39.3965 29.4622 38.6517 29.4622H1.34831C0.603506 29.4622 0 28.8587 0 28.1139V27.215C0 26.4702 0.603506 25.8667 1.34831 25.8667H38.6517C39.3965 25.8667 40 26.4704 40 27.215ZM38.7865 22.9288C38.7865 23.6736 38.183 24.2771 37.4382 24.2771H2.5618C1.81699 24.2771 1.21348 23.6736 1.21348 22.9288C1.21348 13.5352 8.14382 5.7299 17.1599 4.35678C17.0787 4.0864 17.0337 3.80055 17.0337 3.5041C17.0337 1.86851 18.3644 0.537811 20 0.537811C21.6356 0.537811 22.9663 1.86851 22.9663 3.5041C22.9663 3.80055 22.9213 4.0864 22.8401 4.35678C31.8562 5.72972 38.7865 13.5352 38.7865 22.9288ZM18.6186 8.22015C18.437 7.49781 17.705 7.06078 16.9823 7.24091C16.768 7.29484 11.6931 8.60451 8.42283 12.4769C5.64998 15.7603 5.29852 19.8617 5.28503 20.0346C5.22661 20.7769 5.78103 21.4261 6.52351 21.4843C6.55946 21.4872 6.59506 21.4885 6.63065 21.4885C7.32746 21.4885 7.91784 20.9524 7.97339 20.2459C7.97609 20.2121 8.26427 16.8441 10.4834 14.2166C13.173 11.0317 17.5694 9.87444 17.6412 9.85574C18.3624 9.67381 18.7998 8.94195 18.6186 8.22015Z" fill="#F78408"/>
</svg>
