<svg width="250" height="250" viewBox="0 0 250 250" fill="none" xmlns="http://www.w3.org/2000/svg">
<g clip-path="url(#clip0_33_168)">
<path d="M250 0H0V250H250V0Z" fill="#F2F2F2"/>
<path d="M11 4.5H4.5V11H11V4.5Z" fill="#333333"/>
<path d="M17.5 4.5H11V11H17.5V4.5Z" fill="#333333"/>
<path d="M24 4.5H17.5V11H24V4.5Z" fill="#333333"/>
<path d="M30.5 4.5H24V11H30.5V4.5Z" fill="#333333"/>
<path d="M37 4.5H30.5V11H37V4.5Z" fill="#333333"/>
<path d="M43.5 4.5H37V11H43.5V4.5Z" fill="#333333"/>
<path d="M50 4.5H43.5V11H50V4.5Z" fill="#333333"/>
<path d="M76 4.5H69.5V11H76V4.5Z" fill="#333333"/>
<path d="M82.5 4.5H76V11H82.5V4.5Z" fill="#333333"/>
<path d="M95.5 4.5H89V11H95.5V4.5Z" fill="#333333"/>
<path d="M102 4.5H95.5V11H102V4.5Z" fill="#333333"/>
<path d="M108.5 4.5H102V11H108.5V4.5Z" fill="#333333"/>
<path d="M141 4.5H134.5V11H141V4.5Z" fill="#333333"/>
<path d="M160.5 4.5H154V11H160.5V4.5Z" fill="#333333"/>
<path d="M167 4.5H160.5V11H167V4.5Z" fill="#333333"/>
<path d="M173.5 4.5H167V11H173.5V4.5Z" fill="#333333"/>
<path d="M180 4.5H173.5V11H180V4.5Z" fill="#333333"/>
<path d="M206 4.5H199.5V11H206V4.5Z" fill="#333333"/>
<path d="M212.5 4.5H206V11H212.5V4.5Z" fill="#333333"/>
<path d="M219 4.5H212.5V11H219V4.5Z" fill="#333333"/>
<path d="M225.5 4.5H219V11H225.5V4.5Z" fill="#333333"/>
<path d="M232 4.5H225.5V11H232V4.5Z" fill="#333333"/>
<path d="M238.5 4.5H232V11H238.5V4.5Z" fill="#333333"/>
<path d="M245 4.5H238.5V11H245V4.5Z" fill="#333333"/>
<path d="M11 11H4.5V17.5H11V11Z" fill="#333333"/>
<path d="M50 11H43.5V17.5H50V11Z" fill="#333333"/>
<path d="M63 11H56.5V17.5H63V11Z" fill="#333333"/>
<path d="M76 11H69.5V17.5H76V11Z" fill="#333333"/>
<path d="M82.5 11H76V17.5H82.5V11Z" fill="#333333"/>
<path d="M128 11H121.5V17.5H128V11Z" fill="#333333"/>
<path d="M134.5 11H128V17.5H134.5V11Z" fill="#333333"/>
<path d="M141 11H134.5V17.5H141V11Z" fill="#333333"/>
<path d="M147.5 11H141V17.5H147.5V11Z" fill="#333333"/>
<path d="M154 11H147.5V17.5H154V11Z" fill="#333333"/>
<path d="M160.5 11H154V17.5H160.5V11Z" fill="#333333"/>
<path d="M167 11H160.5V17.5H167V11Z" fill="#333333"/>
<path d="M173.5 11H167V17.5H173.5V11Z" fill="#333333"/>
<path d="M180 11H173.5V17.5H180V11Z" fill="#333333"/>
<path d="M186.5 11H180V17.5H186.5V11Z" fill="#333333"/>
<path d="M206 11H199.5V17.5H206V11Z" fill="#333333"/>
<path d="M245 11H238.5V17.5H245V11Z" fill="#333333"/>
<path d="M11 17.5H4.5V24H11V17.5Z" fill="#333333"/>
<path d="M24 17.5H17.5V24H24V17.5Z" fill="#333333"/>
<path d="M30.5 17.5H24V24H30.5V17.5Z" fill="#333333"/>
<path d="M37 17.5H30.5V24H37V17.5Z" fill="#333333"/>
<path d="M50 17.5H43.5V24H50V17.5Z" fill="#333333"/>
<path d="M63 17.5H56.5V24H63V17.5Z" fill="#333333"/>
<path d="M69.5 17.5H63V24H69.5V17.5Z" fill="#333333"/>
<path d="M82.5 17.5H76V24H82.5V17.5Z" fill="#333333"/>
<path d="M102 17.5H95.5V24H102V17.5Z" fill="#333333"/>
<path d="M108.5 17.5H102V24H108.5V17.5Z" fill="#333333"/>
<path d="M121.5 17.5H115V24H121.5V17.5Z" fill="#333333"/>
<path d="M154 17.5H147.5V24H154V17.5Z" fill="#333333"/>
<path d="M173.5 17.5H167V24H173.5V17.5Z" fill="#333333"/>
<path d="M206 17.5H199.5V24H206V17.5Z" fill="#333333"/>
<path d="M219 17.5H212.5V24H219V17.5Z" fill="#333333"/>
<path d="M225.5 17.5H219V24H225.5V17.5Z" fill="#333333"/>
<path d="M232 17.5H225.5V24H232V17.5Z" fill="#333333"/>
<path d="M245 17.5H238.5V24H245V17.5Z" fill="#333333"/>
<path d="M11 24H4.5V30.5H11V24Z" fill="#333333"/>
<path d="M24 24H17.5V30.5H24V24Z" fill="#333333"/>
<path d="M30.5 24H24V30.5H30.5V24Z" fill="#333333"/>
<path d="M37 24H30.5V30.5H37V24Z" fill="#333333"/>
<path d="M50 24H43.5V30.5H50V24Z" fill="#333333"/>
<path d="M63 24H56.5V30.5H63V24Z" fill="#333333"/>
<path d="M76 24H69.5V30.5H76V24Z" fill="#333333"/>
<path d="M82.5 24H76V30.5H82.5V24Z" fill="#333333"/>
<path d="M89 24H82.5V30.5H89V24Z" fill="#333333"/>
<path d="M95.5 24H89V30.5H95.5V24Z" fill="#333333"/>
<path d="M108.5 24H102V30.5H108.5V24Z" fill="#333333"/>
<path d="M128 24H121.5V30.5H128V24Z" fill="#333333"/>
<path d="M141 24H134.5V30.5H141V24Z" fill="#333333"/>
<path d="M147.5 24H141V30.5H147.5V24Z" fill="#333333"/>
<path d="M160.5 24H154V30.5H160.5V24Z" fill="#333333"/>
<path d="M173.5 24H167V30.5H173.5V24Z" fill="#333333"/>
<path d="M180 24H173.5V30.5H180V24Z" fill="#333333"/>
<path d="M206 24H199.5V30.5H206V24Z" fill="#333333"/>
<path d="M219 24H212.5V30.5H219V24Z" fill="#333333"/>
<path d="M225.5 24H219V30.5H225.5V24Z" fill="#333333"/>
<path d="M232 24H225.5V30.5H232V24Z" fill="#333333"/>
<path d="M245 24H238.5V30.5H245V24Z" fill="#333333"/>
<path d="M11 30.5H4.5V37H11V30.5Z" fill="#333333"/>
<path d="M24 30.5H17.5V37H24V30.5Z" fill="#333333"/>
<path d="M30.5 30.5H24V37H30.5V30.5Z" fill="#333333"/>
<path d="M37 30.5H30.5V37H37V30.5Z" fill="#333333"/>
<path d="M50 30.5H43.5V37H50V30.5Z" fill="#333333"/>
<path d="M63 30.5H56.5V37H63V30.5Z" fill="#333333"/>
<path d="M69.5 30.5H63V37H69.5V30.5Z" fill="#333333"/>
<path d="M76 30.5H69.5V37H76V30.5Z" fill="#333333"/>
<path d="M89 30.5H82.5V37H89V30.5Z" fill="#333333"/>
<path d="M95.5 30.5H89V37H95.5V30.5Z" fill="#333333"/>
<path d="M108.5 30.5H102V37H108.5V30.5Z" fill="#333333"/>
<path d="M115 30.5H108.5V37H115V30.5Z" fill="#333333"/>
<path d="M121.5 30.5H115V37H121.5V30.5Z" fill="#333333"/>
<path d="M141 30.5H134.5V37H141V30.5Z" fill="#333333"/>
<path d="M154 30.5H147.5V37H154V30.5Z" fill="#333333"/>
<path d="M167 30.5H160.5V37H167V30.5Z" fill="#333333"/>
<path d="M173.5 30.5H167V37H173.5V30.5Z" fill="#333333"/>
<path d="M180 30.5H173.5V37H180V30.5Z" fill="#333333"/>
<path d="M193 30.5H186.5V37H193V30.5Z" fill="#333333"/>
<path d="M206 30.5H199.5V37H206V30.5Z" fill="#333333"/>
<path d="M219 30.5H212.5V37H219V30.5Z" fill="#333333"/>
<path d="M225.5 30.5H219V37H225.5V30.5Z" fill="#333333"/>
<path d="M232 30.5H225.5V37H232V30.5Z" fill="#333333"/>
<path d="M245 30.5H238.5V37H245V30.5Z" fill="#333333"/>
<path d="M11 37H4.5V43.5H11V37Z" fill="#333333"/>
<path d="M50 37H43.5V43.5H50V37Z" fill="#333333"/>
<path d="M63 37H56.5V43.5H63V37Z" fill="#333333"/>
<path d="M82.5 37H76V43.5H82.5V37Z" fill="#333333"/>
<path d="M89 37H82.5V43.5H89V37Z" fill="#333333"/>
<path d="M102 37H95.5V43.5H102V37Z" fill="#333333"/>
<path d="M108.5 37H102V43.5H108.5V37Z" fill="#333333"/>
<path d="M128 37H121.5V43.5H128V37Z" fill="#333333"/>
<path d="M134.5 37H128V43.5H134.5V37Z" fill="#333333"/>
<path d="M141 37H134.5V43.5H141V37Z" fill="#333333"/>
<path d="M147.5 37H141V43.5H147.5V37Z" fill="#333333"/>
<path d="M186.5 37H180V43.5H186.5V37Z" fill="#333333"/>
<path d="M193 37H186.5V43.5H193V37Z" fill="#333333"/>
<path d="M206 37H199.5V43.5H206V37Z" fill="#333333"/>
<path d="M245 37H238.5V43.5H245V37Z" fill="#333333"/>
<path d="M11 43.5H4.5V50H11V43.5Z" fill="#333333"/>
<path d="M17.5 43.5H11V50H17.5V43.5Z" fill="#333333"/>
<path d="M24 43.5H17.5V50H24V43.5Z" fill="#333333"/>
<path d="M30.5 43.5H24V50H30.5V43.5Z" fill="#333333"/>
<path d="M37 43.5H30.5V50H37V43.5Z" fill="#333333"/>
<path d="M43.5 43.5H37V50H43.5V43.5Z" fill="#333333"/>
<path d="M50 43.5H43.5V50H50V43.5Z" fill="#333333"/>
<path d="M63 43.5H56.5V50H63V43.5Z" fill="#333333"/>
<path d="M76 43.5H69.5V50H76V43.5Z" fill="#333333"/>
<path d="M89 43.5H82.5V50H89V43.5Z" fill="#333333"/>
<path d="M102 43.5H95.5V50H102V43.5Z" fill="#333333"/>
<path d="M115 43.5H108.5V50H115V43.5Z" fill="#333333"/>
<path d="M128 43.5H121.5V50H128V43.5Z" fill="#333333"/>
<path d="M141 43.5H134.5V50H141V43.5Z" fill="#333333"/>
<path d="M154 43.5H147.5V50H154V43.5Z" fill="#333333"/>
<path d="M167 43.5H160.5V50H167V43.5Z" fill="#333333"/>
<path d="M180 43.5H173.5V50H180V43.5Z" fill="#333333"/>
<path d="M193 43.5H186.5V50H193V43.5Z" fill="#333333"/>
<path d="M206 43.5H199.5V50H206V43.5Z" fill="#333333"/>
<path d="M212.5 43.5H206V50H212.5V43.5Z" fill="#333333"/>
<path d="M219 43.5H212.5V50H219V43.5Z" fill="#333333"/>
<path d="M225.5 43.5H219V50H225.5V43.5Z" fill="#333333"/>
<path d="M232 43.5H225.5V50H232V43.5Z" fill="#333333"/>
<path d="M238.5 43.5H232V50H238.5V43.5Z" fill="#333333"/>
<path d="M245 43.5H238.5V50H245V43.5Z" fill="#333333"/>
<path d="M69.5 50H63V56.5H69.5V50Z" fill="#333333"/>
<path d="M102 50H95.5V56.5H102V50Z" fill="#333333"/>
<path d="M108.5 50H102V56.5H108.5V50Z" fill="#333333"/>
<path d="M121.5 50H115V56.5H121.5V50Z" fill="#333333"/>
<path d="M128 50H121.5V56.5H128V50Z" fill="#333333"/>
<path d="M154 50H147.5V56.5H154V50Z" fill="#333333"/>
<path d="M167 50H160.5V56.5H167V50Z" fill="#333333"/>
<path d="M186.5 50H180V56.5H186.5V50Z" fill="#333333"/>
<path d="M24 56.5H17.5V63H24V56.5Z" fill="#333333"/>
<path d="M43.5 56.5H37V63H43.5V56.5Z" fill="#333333"/>
<path d="M50 56.5H43.5V63H50V56.5Z" fill="#333333"/>
<path d="M56.5 56.5H50V63H56.5V56.5Z" fill="#333333"/>
<path d="M63 56.5H56.5V63H63V56.5Z" fill="#333333"/>
<path d="M82.5 56.5H76V63H82.5V56.5Z" fill="#333333"/>
<path d="M89 56.5H82.5V63H89V56.5Z" fill="#333333"/>
<path d="M95.5 56.5H89V63H95.5V56.5Z" fill="#333333"/>
<path d="M108.5 56.5H102V63H108.5V56.5Z" fill="#333333"/>
<path d="M128 56.5H121.5V63H128V56.5Z" fill="#333333"/>
<path d="M147.5 56.5H141V63H147.5V56.5Z" fill="#333333"/>
<path d="M160.5 56.5H154V63H160.5V56.5Z" fill="#333333"/>
<path d="M173.5 56.5H167V63H173.5V56.5Z" fill="#333333"/>
<path d="M180 56.5H173.5V63H180V56.5Z" fill="#333333"/>
<path d="M186.5 56.5H180V63H186.5V56.5Z" fill="#333333"/>
<path d="M199.5 56.5H193V63H199.5V56.5Z" fill="#333333"/>
<path d="M212.5 56.5H206V63H212.5V56.5Z" fill="#333333"/>
<path d="M219 56.5H212.5V63H219V56.5Z" fill="#333333"/>
<path d="M225.5 56.5H219V63H225.5V56.5Z" fill="#333333"/>
<path d="M232 56.5H225.5V63H232V56.5Z" fill="#333333"/>
<path d="M238.5 56.5H232V63H238.5V56.5Z" fill="#333333"/>
<path d="M24 63H17.5V69.5H24V63Z" fill="#333333"/>
<path d="M30.5 63H24V69.5H30.5V63Z" fill="#333333"/>
<path d="M43.5 63H37V69.5H43.5V63Z" fill="#333333"/>
<path d="M69.5 63H63V69.5H69.5V63Z" fill="#333333"/>
<path d="M76 63H69.5V69.5H76V63Z" fill="#333333"/>
<path d="M82.5 63H76V69.5H82.5V63Z" fill="#333333"/>
<path d="M89 63H82.5V69.5H89V63Z" fill="#333333"/>
<path d="M95.5 63H89V69.5H95.5V63Z" fill="#333333"/>
<path d="M102 63H95.5V69.5H102V63Z" fill="#333333"/>
<path d="M108.5 63H102V69.5H108.5V63Z" fill="#333333"/>
<path d="M115 63H108.5V69.5H115V63Z" fill="#333333"/>
<path d="M128 63H121.5V69.5H128V63Z" fill="#333333"/>
<path d="M141 63H134.5V69.5H141V63Z" fill="#333333"/>
<path d="M147.5 63H141V69.5H147.5V63Z" fill="#333333"/>
<path d="M154 63H147.5V69.5H154V63Z" fill="#333333"/>
<path d="M186.5 63H180V69.5H186.5V63Z" fill="#333333"/>
<path d="M193 63H186.5V69.5H193V63Z" fill="#333333"/>
<path d="M199.5 63H193V69.5H199.5V63Z" fill="#333333"/>
<path d="M225.5 63H219V69.5H225.5V63Z" fill="#333333"/>
<path d="M245 63H238.5V69.5H245V63Z" fill="#333333"/>
<path d="M11 69.5H4.5V76H11V69.5Z" fill="#333333"/>
<path d="M17.5 69.5H11V76H17.5V69.5Z" fill="#333333"/>
<path d="M50 69.5H43.5V76H50V69.5Z" fill="#333333"/>
<path d="M56.5 69.5H50V76H56.5V69.5Z" fill="#333333"/>
<path d="M95.5 69.5H89V76H95.5V69.5Z" fill="#333333"/>
<path d="M115 69.5H108.5V76H115V69.5Z" fill="#333333"/>
<path d="M128 69.5H121.5V76H128V69.5Z" fill="#333333"/>
<path d="M134.5 69.5H128V76H134.5V69.5Z" fill="#333333"/>
<path d="M147.5 69.5H141V76H147.5V69.5Z" fill="#333333"/>
<path d="M160.5 69.5H154V76H160.5V69.5Z" fill="#333333"/>
<path d="M167 69.5H160.5V76H167V69.5Z" fill="#333333"/>
<path d="M180 69.5H173.5V76H180V69.5Z" fill="#333333"/>
<path d="M193 69.5H186.5V76H193V69.5Z" fill="#333333"/>
<path d="M206 69.5H199.5V76H206V69.5Z" fill="#333333"/>
<path d="M212.5 69.5H206V76H212.5V69.5Z" fill="#333333"/>
<path d="M56.5 76H50V82.5H56.5V76Z" fill="#333333"/>
<path d="M63 76H56.5V82.5H63V76Z" fill="#333333"/>
<path d="M69.5 76H63V82.5H69.5V76Z" fill="#333333"/>
<path d="M76 76H69.5V82.5H76V76Z" fill="#333333"/>
<path d="M108.5 76H102V82.5H108.5V76Z" fill="#333333"/>
<path d="M121.5 76H115V82.5H121.5V76Z" fill="#333333"/>
<path d="M134.5 76H128V82.5H134.5V76Z" fill="#333333"/>
<path d="M160.5 76H154V82.5H160.5V76Z" fill="#333333"/>
<path d="M173.5 76H167V82.5H173.5V76Z" fill="#333333"/>
<path d="M186.5 76H180V82.5H186.5V76Z" fill="#333333"/>
<path d="M193 76H186.5V82.5H193V76Z" fill="#333333"/>
<path d="M199.5 76H193V82.5H199.5V76Z" fill="#333333"/>
<path d="M206 76H199.5V82.5H206V76Z" fill="#333333"/>
<path d="M212.5 76H206V82.5H212.5V76Z" fill="#333333"/>
<path d="M245 76H238.5V82.5H245V76Z" fill="#333333"/>
<path d="M11 82.5H4.5V89H11V82.5Z" fill="#333333"/>
<path d="M37 82.5H30.5V89H37V82.5Z" fill="#333333"/>
<path d="M50 82.5H43.5V89H50V82.5Z" fill="#333333"/>
<path d="M69.5 82.5H63V89H69.5V82.5Z" fill="#333333"/>
<path d="M82.5 82.5H76V89H82.5V82.5Z" fill="#333333"/>
<path d="M95.5 82.5H89V89H95.5V82.5Z" fill="#333333"/>
<path d="M102 82.5H95.5V89H102V82.5Z" fill="#333333"/>
<path d="M141 82.5H134.5V89H141V82.5Z" fill="#333333"/>
<path d="M167 82.5H160.5V89H167V82.5Z" fill="#333333"/>
<path d="M186.5 82.5H180V89H186.5V82.5Z" fill="#333333"/>
<path d="M206 82.5H199.5V89H206V82.5Z" fill="#333333"/>
<path d="M225.5 82.5H219V89H225.5V82.5Z" fill="#333333"/>
<path d="M245 82.5H238.5V89H245V82.5Z" fill="#333333"/>
<path d="M24 89H17.5V95.5H24V89Z" fill="#333333"/>
<path d="M37 89H30.5V95.5H37V89Z" fill="#333333"/>
<path d="M43.5 89H37V95.5H43.5V89Z" fill="#333333"/>
<path d="M56.5 89H50V95.5H56.5V89Z" fill="#333333"/>
<path d="M69.5 89H63V95.5H69.5V89Z" fill="#333333"/>
<path d="M82.5 89H76V95.5H82.5V89Z" fill="#333333"/>
<path d="M89 89H82.5V95.5H89V89Z" fill="#333333"/>
<path d="M95.5 89H89V95.5H95.5V89Z" fill="#333333"/>
<path d="M115 89H108.5V95.5H115V89Z" fill="#333333"/>
<path d="M121.5 89H115V95.5H121.5V89Z" fill="#333333"/>
<path d="M128 89H121.5V95.5H128V89Z" fill="#333333"/>
<path d="M134.5 89H128V95.5H134.5V89Z" fill="#333333"/>
<path d="M141 89H134.5V95.5H141V89Z" fill="#333333"/>
<path d="M147.5 89H141V95.5H147.5V89Z" fill="#333333"/>
<path d="M180 89H173.5V95.5H180V89Z" fill="#333333"/>
<path d="M212.5 89H206V95.5H212.5V89Z" fill="#333333"/>
<path d="M219 89H212.5V95.5H219V89Z" fill="#333333"/>
<path d="M238.5 89H232V95.5H238.5V89Z" fill="#333333"/>
<path d="M245 89H238.5V95.5H245V89Z" fill="#333333"/>
<path d="M11 95.5H4.5V102H11V95.5Z" fill="#333333"/>
<path d="M17.5 95.5H11V102H17.5V95.5Z" fill="#333333"/>
<path d="M24 95.5H17.5V102H24V95.5Z" fill="#333333"/>
<path d="M43.5 95.5H37V102H43.5V95.5Z" fill="#333333"/>
<path d="M50 95.5H43.5V102H50V95.5Z" fill="#333333"/>
<path d="M76 95.5H69.5V102H76V95.5Z" fill="#333333"/>
<path d="M108.5 95.5H102V102H108.5V95.5Z" fill="#333333"/>
<path d="M121.5 95.5H115V102H121.5V95.5Z" fill="#333333"/>
<path d="M128 95.5H121.5V102H128V95.5Z" fill="#333333"/>
<path d="M141 95.5H134.5V102H141V95.5Z" fill="#333333"/>
<path d="M147.5 95.5H141V102H147.5V95.5Z" fill="#333333"/>
<path d="M167 95.5H160.5V102H167V95.5Z" fill="#333333"/>
<path d="M193 95.5H186.5V102H193V95.5Z" fill="#333333"/>
<path d="M206 95.5H199.5V102H206V95.5Z" fill="#333333"/>
<path d="M212.5 95.5H206V102H212.5V95.5Z" fill="#333333"/>
<path d="M225.5 95.5H219V102H225.5V95.5Z" fill="#333333"/>
<path d="M245 95.5H238.5V102H245V95.5Z" fill="#333333"/>
<path d="M11 102H4.5V108.5H11V102Z" fill="#333333"/>
<path d="M43.5 102H37V108.5H43.5V102Z" fill="#333333"/>
<path d="M56.5 102H50V108.5H56.5V102Z" fill="#333333"/>
<path d="M69.5 102H63V108.5H69.5V102Z" fill="#333333"/>
<path d="M89 102H82.5V108.5H89V102Z" fill="#333333"/>
<path d="M95.5 102H89V108.5H95.5V102Z" fill="#333333"/>
<path d="M102 102H95.5V108.5H102V102Z" fill="#333333"/>
<path d="M115 102H108.5V108.5H115V102Z" fill="#333333"/>
<path d="M121.5 102H115V108.5H121.5V102Z" fill="#333333"/>
<path d="M128 102H121.5V108.5H128V102Z" fill="#333333"/>
<path d="M141 102H134.5V108.5H141V102Z" fill="#333333"/>
<path d="M147.5 102H141V108.5H147.5V102Z" fill="#333333"/>
<path d="M154 102H147.5V108.5H154V102Z" fill="#333333"/>
<path d="M186.5 102H180V108.5H186.5V102Z" fill="#333333"/>
<path d="M193 102H186.5V108.5H193V102Z" fill="#333333"/>
<path d="M206 102H199.5V108.5H206V102Z" fill="#333333"/>
<path d="M225.5 102H219V108.5H225.5V102Z" fill="#333333"/>
<path d="M238.5 102H232V108.5H238.5V102Z" fill="#333333"/>
<path d="M245 102H238.5V108.5H245V102Z" fill="#333333"/>
<path d="M17.5 108.5H11V115H17.5V108.5Z" fill="#333333"/>
<path d="M50 108.5H43.5V115H50V108.5Z" fill="#333333"/>
<path d="M63 108.5H56.5V115H63V108.5Z" fill="#333333"/>
<path d="M76 108.5H69.5V115H76V108.5Z" fill="#333333"/>
<path d="M82.5 108.5H76V115H82.5V108.5Z" fill="#333333"/>
<path d="M95.5 108.5H89V115H95.5V108.5Z" fill="#333333"/>
<path d="M102 108.5H95.5V115H102V108.5Z" fill="#333333"/>
<path d="M115 108.5H108.5V115H115V108.5Z" fill="#333333"/>
<path d="M121.5 108.5H115V115H121.5V108.5Z" fill="#333333"/>
<path d="M134.5 108.5H128V115H134.5V108.5Z" fill="#333333"/>
<path d="M147.5 108.5H141V115H147.5V108.5Z" fill="#333333"/>
<path d="M167 108.5H160.5V115H167V108.5Z" fill="#333333"/>
<path d="M180 108.5H173.5V115H180V108.5Z" fill="#333333"/>
<path d="M186.5 108.5H180V115H186.5V108.5Z" fill="#333333"/>
<path d="M206 108.5H199.5V115H206V108.5Z" fill="#333333"/>
<path d="M212.5 108.5H206V115H212.5V108.5Z" fill="#333333"/>
<path d="M245 108.5H238.5V115H245V108.5Z" fill="#333333"/>
<path d="M17.5 115H11V121.5H17.5V115Z" fill="#333333"/>
<path d="M30.5 115H24V121.5H30.5V115Z" fill="#333333"/>
<path d="M56.5 115H50V121.5H56.5V115Z" fill="#333333"/>
<path d="M89 115H82.5V121.5H89V115Z" fill="#333333"/>
<path d="M102 115H95.5V121.5H102V115Z" fill="#333333"/>
<path d="M121.5 115H115V121.5H121.5V115Z" fill="#333333"/>
<path d="M134.5 115H128V121.5H134.5V115Z" fill="#333333"/>
<path d="M141 115H134.5V121.5H141V115Z" fill="#333333"/>
<path d="M147.5 115H141V121.5H147.5V115Z" fill="#333333"/>
<path d="M160.5 115H154V121.5H160.5V115Z" fill="#333333"/>
<path d="M180 115H173.5V121.5H180V115Z" fill="#333333"/>
<path d="M199.5 115H193V121.5H199.5V115Z" fill="#333333"/>
<path d="M225.5 115H219V121.5H225.5V115Z" fill="#333333"/>
<path d="M11 121.5H4.5V128H11V121.5Z" fill="#333333"/>
<path d="M17.5 121.5H11V128H17.5V121.5Z" fill="#333333"/>
<path d="M50 121.5H43.5V128H50V121.5Z" fill="#333333"/>
<path d="M56.5 121.5H50V128H56.5V121.5Z" fill="#333333"/>
<path d="M63 121.5H56.5V128H63V121.5Z" fill="#333333"/>
<path d="M69.5 121.5H63V128H69.5V121.5Z" fill="#333333"/>
<path d="M102 121.5H95.5V128H102V121.5Z" fill="#333333"/>
<path d="M108.5 121.5H102V128H108.5V121.5Z" fill="#333333"/>
<path d="M115 121.5H108.5V128H115V121.5Z" fill="#333333"/>
<path d="M134.5 121.5H128V128H134.5V121.5Z" fill="#333333"/>
<path d="M141 121.5H134.5V128H141V121.5Z" fill="#333333"/>
<path d="M147.5 121.5H141V128H147.5V121.5Z" fill="#333333"/>
<path d="M154 121.5H147.5V128H154V121.5Z" fill="#333333"/>
<path d="M186.5 121.5H180V128H186.5V121.5Z" fill="#333333"/>
<path d="M193 121.5H186.5V128H193V121.5Z" fill="#333333"/>
<path d="M206 121.5H199.5V128H206V121.5Z" fill="#333333"/>
<path d="M212.5 121.5H206V128H212.5V121.5Z" fill="#333333"/>
<path d="M245 121.5H238.5V128H245V121.5Z" fill="#333333"/>
<path d="M24 128H17.5V134.5H24V128Z" fill="#333333"/>
<path d="M37 128H30.5V134.5H37V128Z" fill="#333333"/>
<path d="M43.5 128H37V134.5H43.5V128Z" fill="#333333"/>
<path d="M76 128H69.5V134.5H76V128Z" fill="#333333"/>
<path d="M82.5 128H76V134.5H82.5V128Z" fill="#333333"/>
<path d="M89 128H82.5V134.5H89V128Z" fill="#333333"/>
<path d="M108.5 128H102V134.5H108.5V128Z" fill="#333333"/>
<path d="M134.5 128H128V134.5H134.5V128Z" fill="#333333"/>
<path d="M154 128H147.5V134.5H154V128Z" fill="#333333"/>
<path d="M167 128H160.5V134.5H167V128Z" fill="#333333"/>
<path d="M186.5 128H180V134.5H186.5V128Z" fill="#333333"/>
<path d="M193 128H186.5V134.5H193V128Z" fill="#333333"/>
<path d="M206 128H199.5V134.5H206V128Z" fill="#333333"/>
<path d="M212.5 128H206V134.5H212.5V128Z" fill="#333333"/>
<path d="M225.5 128H219V134.5H225.5V128Z" fill="#333333"/>
<path d="M245 128H238.5V134.5H245V128Z" fill="#333333"/>
<path d="M11 134.5H4.5V141H11V134.5Z" fill="#333333"/>
<path d="M17.5 134.5H11V141H17.5V134.5Z" fill="#333333"/>
<path d="M50 134.5H43.5V141H50V134.5Z" fill="#333333"/>
<path d="M63 134.5H56.5V141H63V134.5Z" fill="#333333"/>
<path d="M69.5 134.5H63V141H69.5V134.5Z" fill="#333333"/>
<path d="M82.5 134.5H76V141H82.5V134.5Z" fill="#333333"/>
<path d="M89 134.5H82.5V141H89V134.5Z" fill="#333333"/>
<path d="M95.5 134.5H89V141H95.5V134.5Z" fill="#333333"/>
<path d="M115 134.5H108.5V141H115V134.5Z" fill="#333333"/>
<path d="M128 134.5H121.5V141H128V134.5Z" fill="#333333"/>
<path d="M134.5 134.5H128V141H134.5V134.5Z" fill="#333333"/>
<path d="M141 134.5H134.5V141H141V134.5Z" fill="#333333"/>
<path d="M154 134.5H147.5V141H154V134.5Z" fill="#333333"/>
<path d="M160.5 134.5H154V141H160.5V134.5Z" fill="#333333"/>
<path d="M173.5 134.5H167V141H173.5V134.5Z" fill="#333333"/>
<path d="M180 134.5H173.5V141H180V134.5Z" fill="#333333"/>
<path d="M186.5 134.5H180V141H186.5V134.5Z" fill="#333333"/>
<path d="M199.5 134.5H193V141H199.5V134.5Z" fill="#333333"/>
<path d="M206 134.5H199.5V141H206V134.5Z" fill="#333333"/>
<path d="M212.5 134.5H206V141H212.5V134.5Z" fill="#333333"/>
<path d="M219 134.5H212.5V141H219V134.5Z" fill="#333333"/>
<path d="M238.5 134.5H232V141H238.5V134.5Z" fill="#333333"/>
<path d="M17.5 141H11V147.5H17.5V141Z" fill="#333333"/>
<path d="M24 141H17.5V147.5H24V141Z" fill="#333333"/>
<path d="M30.5 141H24V147.5H30.5V141Z" fill="#333333"/>
<path d="M37 141H30.5V147.5H37V141Z" fill="#333333"/>
<path d="M43.5 141H37V147.5H43.5V141Z" fill="#333333"/>
<path d="M82.5 141H76V147.5H82.5V141Z" fill="#333333"/>
<path d="M95.5 141H89V147.5H95.5V141Z" fill="#333333"/>
<path d="M102 141H95.5V147.5H102V141Z" fill="#333333"/>
<path d="M108.5 141H102V147.5H108.5V141Z" fill="#333333"/>
<path d="M115 141H108.5V147.5H115V141Z" fill="#333333"/>
<path d="M128 141H121.5V147.5H128V141Z" fill="#333333"/>
<path d="M134.5 141H128V147.5H134.5V141Z" fill="#333333"/>
<path d="M141 141H134.5V147.5H141V141Z" fill="#333333"/>
<path d="M147.5 141H141V147.5H147.5V141Z" fill="#333333"/>
<path d="M167 141H160.5V147.5H167V141Z" fill="#333333"/>
<path d="M173.5 141H167V147.5H173.5V141Z" fill="#333333"/>
<path d="M180 141H173.5V147.5H180V141Z" fill="#333333"/>
<path d="M186.5 141H180V147.5H186.5V141Z" fill="#333333"/>
<path d="M206 141H199.5V147.5H206V141Z" fill="#333333"/>
<path d="M212.5 141H206V147.5H212.5V141Z" fill="#333333"/>
<path d="M225.5 141H219V147.5H225.5V141Z" fill="#333333"/>
<path d="M238.5 141H232V147.5H238.5V141Z" fill="#333333"/>
<path d="M17.5 147.5H11V154H17.5V147.5Z" fill="#333333"/>
<path d="M30.5 147.5H24V154H30.5V147.5Z" fill="#333333"/>
<path d="M37 147.5H30.5V154H37V147.5Z" fill="#333333"/>
<path d="M50 147.5H43.5V154H50V147.5Z" fill="#333333"/>
<path d="M56.5 147.5H50V154H56.5V147.5Z" fill="#333333"/>
<path d="M76 147.5H69.5V154H76V147.5Z" fill="#333333"/>
<path d="M95.5 147.5H89V154H95.5V147.5Z" fill="#333333"/>
<path d="M108.5 147.5H102V154H108.5V147.5Z" fill="#333333"/>
<path d="M134.5 147.5H128V154H134.5V147.5Z" fill="#333333"/>
<path d="M147.5 147.5H141V154H147.5V147.5Z" fill="#333333"/>
<path d="M186.5 147.5H180V154H186.5V147.5Z" fill="#333333"/>
<path d="M206 147.5H199.5V154H206V147.5Z" fill="#333333"/>
<path d="M225.5 147.5H219V154H225.5V147.5Z" fill="#333333"/>
<path d="M238.5 147.5H232V154H238.5V147.5Z" fill="#333333"/>
<path d="M245 147.5H238.5V154H245V147.5Z" fill="#333333"/>
<path d="M24 154H17.5V160.5H24V154Z" fill="#333333"/>
<path d="M30.5 154H24V160.5H30.5V154Z" fill="#333333"/>
<path d="M43.5 154H37V160.5H43.5V154Z" fill="#333333"/>
<path d="M69.5 154H63V160.5H69.5V154Z" fill="#333333"/>
<path d="M76 154H69.5V160.5H76V154Z" fill="#333333"/>
<path d="M82.5 154H76V160.5H82.5V154Z" fill="#333333"/>
<path d="M89 154H82.5V160.5H89V154Z" fill="#333333"/>
<path d="M102 154H95.5V160.5H102V154Z" fill="#333333"/>
<path d="M115 154H108.5V160.5H115V154Z" fill="#333333"/>
<path d="M121.5 154H115V160.5H121.5V154Z" fill="#333333"/>
<path d="M128 154H121.5V160.5H128V154Z" fill="#333333"/>
<path d="M173.5 154H167V160.5H173.5V154Z" fill="#333333"/>
<path d="M186.5 154H180V160.5H186.5V154Z" fill="#333333"/>
<path d="M193 154H186.5V160.5H193V154Z" fill="#333333"/>
<path d="M206 154H199.5V160.5H206V154Z" fill="#333333"/>
<path d="M212.5 154H206V160.5H212.5V154Z" fill="#333333"/>
<path d="M225.5 154H219V160.5H225.5V154Z" fill="#333333"/>
<path d="M245 154H238.5V160.5H245V154Z" fill="#333333"/>
<path d="M17.5 160.5H11V167H17.5V160.5Z" fill="#333333"/>
<path d="M24 160.5H17.5V167H24V160.5Z" fill="#333333"/>
<path d="M30.5 160.5H24V167H30.5V160.5Z" fill="#333333"/>
<path d="M37 160.5H30.5V167H37V160.5Z" fill="#333333"/>
<path d="M50 160.5H43.5V167H50V160.5Z" fill="#333333"/>
<path d="M63 160.5H56.5V167H63V160.5Z" fill="#333333"/>
<path d="M95.5 160.5H89V167H95.5V160.5Z" fill="#333333"/>
<path d="M102 160.5H95.5V167H102V160.5Z" fill="#333333"/>
<path d="M121.5 160.5H115V167H121.5V160.5Z" fill="#333333"/>
<path d="M134.5 160.5H128V167H134.5V160.5Z" fill="#333333"/>
<path d="M147.5 160.5H141V167H147.5V160.5Z" fill="#333333"/>
<path d="M154 160.5H147.5V167H154V160.5Z" fill="#333333"/>
<path d="M167 160.5H160.5V167H167V160.5Z" fill="#333333"/>
<path d="M173.5 160.5H167V167H173.5V160.5Z" fill="#333333"/>
<path d="M186.5 160.5H180V167H186.5V160.5Z" fill="#333333"/>
<path d="M219 160.5H212.5V167H219V160.5Z" fill="#333333"/>
<path d="M232 160.5H225.5V167H232V160.5Z" fill="#333333"/>
<path d="M245 160.5H238.5V167H245V160.5Z" fill="#333333"/>
<path d="M17.5 167H11V173.5H17.5V167Z" fill="#333333"/>
<path d="M24 167H17.5V173.5H24V167Z" fill="#333333"/>
<path d="M37 167H30.5V173.5H37V167Z" fill="#333333"/>
<path d="M69.5 167H63V173.5H69.5V167Z" fill="#333333"/>
<path d="M76 167H69.5V173.5H76V167Z" fill="#333333"/>
<path d="M82.5 167H76V173.5H82.5V167Z" fill="#333333"/>
<path d="M95.5 167H89V173.5H95.5V167Z" fill="#333333"/>
<path d="M102 167H95.5V173.5H102V167Z" fill="#333333"/>
<path d="M108.5 167H102V173.5H108.5V167Z" fill="#333333"/>
<path d="M167 167H160.5V173.5H167V167Z" fill="#333333"/>
<path d="M186.5 167H180V173.5H186.5V167Z" fill="#333333"/>
<path d="M219 167H212.5V173.5H219V167Z" fill="#333333"/>
<path d="M225.5 167H219V173.5H225.5V167Z" fill="#333333"/>
<path d="M245 167H238.5V173.5H245V167Z" fill="#333333"/>
<path d="M11 173.5H4.5V180H11V173.5Z" fill="#333333"/>
<path d="M17.5 173.5H11V180H17.5V173.5Z" fill="#333333"/>
<path d="M37 173.5H30.5V180H37V173.5Z" fill="#333333"/>
<path d="M50 173.5H43.5V180H50V173.5Z" fill="#333333"/>
<path d="M63 173.5H56.5V180H63V173.5Z" fill="#333333"/>
<path d="M76 173.5H69.5V180H76V173.5Z" fill="#333333"/>
<path d="M95.5 173.5H89V180H95.5V173.5Z" fill="#333333"/>
<path d="M102 173.5H95.5V180H102V173.5Z" fill="#333333"/>
<path d="M115 173.5H108.5V180H115V173.5Z" fill="#333333"/>
<path d="M128 173.5H121.5V180H128V173.5Z" fill="#333333"/>
<path d="M134.5 173.5H128V180H134.5V173.5Z" fill="#333333"/>
<path d="M141 173.5H134.5V180H141V173.5Z" fill="#333333"/>
<path d="M167 173.5H160.5V180H167V173.5Z" fill="#333333"/>
<path d="M180 173.5H173.5V180H180V173.5Z" fill="#333333"/>
<path d="M193 173.5H186.5V180H193V173.5Z" fill="#333333"/>
<path d="M206 173.5H199.5V180H206V173.5Z" fill="#333333"/>
<path d="M24 180H17.5V186.5H24V180Z" fill="#333333"/>
<path d="M30.5 180H24V186.5H30.5V180Z" fill="#333333"/>
<path d="M37 180H30.5V186.5H37V180Z" fill="#333333"/>
<path d="M76 180H69.5V186.5H76V180Z" fill="#333333"/>
<path d="M82.5 180H76V186.5H82.5V180Z" fill="#333333"/>
<path d="M108.5 180H102V186.5H108.5V180Z" fill="#333333"/>
<path d="M121.5 180H115V186.5H121.5V180Z" fill="#333333"/>
<path d="M134.5 180H128V186.5H134.5V180Z" fill="#333333"/>
<path d="M147.5 180H141V186.5H147.5V180Z" fill="#333333"/>
<path d="M154 180H147.5V186.5H154V180Z" fill="#333333"/>
<path d="M160.5 180H154V186.5H160.5V180Z" fill="#333333"/>
<path d="M167 180H160.5V186.5H167V180Z" fill="#333333"/>
<path d="M173.5 180H167V186.5H173.5V180Z" fill="#333333"/>
<path d="M186.5 180H180V186.5H186.5V180Z" fill="#333333"/>
<path d="M193 180H186.5V186.5H193V180Z" fill="#333333"/>
<path d="M199.5 180H193V186.5H199.5V180Z" fill="#333333"/>
<path d="M206 180H199.5V186.5H206V180Z" fill="#333333"/>
<path d="M212.5 180H206V186.5H212.5V180Z" fill="#333333"/>
<path d="M232 180H225.5V186.5H232V180Z" fill="#333333"/>
<path d="M245 180H238.5V186.5H245V180Z" fill="#333333"/>
<path d="M11 186.5H4.5V193H11V186.5Z" fill="#333333"/>
<path d="M17.5 186.5H11V193H17.5V186.5Z" fill="#333333"/>
<path d="M37 186.5H30.5V193H37V186.5Z" fill="#333333"/>
<path d="M43.5 186.5H37V193H43.5V186.5Z" fill="#333333"/>
<path d="M50 186.5H43.5V193H50V186.5Z" fill="#333333"/>
<path d="M63 186.5H56.5V193H63V186.5Z" fill="#333333"/>
<path d="M76 186.5H69.5V193H76V186.5Z" fill="#333333"/>
<path d="M108.5 186.5H102V193H108.5V186.5Z" fill="#333333"/>
<path d="M141 186.5H134.5V193H141V186.5Z" fill="#333333"/>
<path d="M186.5 186.5H180V193H186.5V186.5Z" fill="#333333"/>
<path d="M193 186.5H186.5V193H193V186.5Z" fill="#333333"/>
<path d="M199.5 186.5H193V193H199.5V186.5Z" fill="#333333"/>
<path d="M206 186.5H199.5V193H206V186.5Z" fill="#333333"/>
<path d="M212.5 186.5H206V193H212.5V186.5Z" fill="#333333"/>
<path d="M219 186.5H212.5V193H219V186.5Z" fill="#333333"/>
<path d="M225.5 186.5H219V193H225.5V186.5Z" fill="#333333"/>
<path d="M238.5 186.5H232V193H238.5V186.5Z" fill="#333333"/>
<path d="M245 186.5H238.5V193H245V186.5Z" fill="#333333"/>
<path d="M63 193H56.5V199.5H63V193Z" fill="#333333"/>
<path d="M82.5 193H76V199.5H82.5V193Z" fill="#333333"/>
<path d="M89 193H82.5V199.5H89V193Z" fill="#333333"/>
<path d="M108.5 193H102V199.5H108.5V193Z" fill="#333333"/>
<path d="M115 193H108.5V199.5H115V193Z" fill="#333333"/>
<path d="M121.5 193H115V199.5H121.5V193Z" fill="#333333"/>
<path d="M128 193H121.5V199.5H128V193Z" fill="#333333"/>
<path d="M141 193H134.5V199.5H141V193Z" fill="#333333"/>
<path d="M167 193H160.5V199.5H167V193Z" fill="#333333"/>
<path d="M180 193H173.5V199.5H180V193Z" fill="#333333"/>
<path d="M186.5 193H180V199.5H186.5V193Z" fill="#333333"/>
<path d="M193 193H186.5V199.5H193V193Z" fill="#333333"/>
<path d="M219 193H212.5V199.5H219V193Z" fill="#333333"/>
<path d="M225.5 193H219V199.5H225.5V193Z" fill="#333333"/>
<path d="M238.5 193H232V199.5H238.5V193Z" fill="#333333"/>
<path d="M245 193H238.5V199.5H245V193Z" fill="#333333"/>
<path d="M11 199.5H4.5V206H11V199.5Z" fill="#333333"/>
<path d="M17.5 199.5H11V206H17.5V199.5Z" fill="#333333"/>
<path d="M24 199.5H17.5V206H24V199.5Z" fill="#333333"/>
<path d="M30.5 199.5H24V206H30.5V199.5Z" fill="#333333"/>
<path d="M37 199.5H30.5V206H37V199.5Z" fill="#333333"/>
<path d="M43.5 199.5H37V206H43.5V199.5Z" fill="#333333"/>
<path d="M50 199.5H43.5V206H50V199.5Z" fill="#333333"/>
<path d="M63 199.5H56.5V206H63V199.5Z" fill="#333333"/>
<path d="M69.5 199.5H63V206H69.5V199.5Z" fill="#333333"/>
<path d="M89 199.5H82.5V206H89V199.5Z" fill="#333333"/>
<path d="M108.5 199.5H102V206H108.5V199.5Z" fill="#333333"/>
<path d="M115 199.5H108.5V206H115V199.5Z" fill="#333333"/>
<path d="M134.5 199.5H128V206H134.5V199.5Z" fill="#333333"/>
<path d="M141 199.5H134.5V206H141V199.5Z" fill="#333333"/>
<path d="M147.5 199.5H141V206H147.5V199.5Z" fill="#333333"/>
<path d="M154 199.5H147.5V206H154V199.5Z" fill="#333333"/>
<path d="M167 199.5H160.5V206H167V199.5Z" fill="#333333"/>
<path d="M186.5 199.5H180V206H186.5V199.5Z" fill="#333333"/>
<path d="M193 199.5H186.5V206H193V199.5Z" fill="#333333"/>
<path d="M206 199.5H199.5V206H206V199.5Z" fill="#333333"/>
<path d="M219 199.5H212.5V206H219V199.5Z" fill="#333333"/>
<path d="M225.5 199.5H219V206H225.5V199.5Z" fill="#333333"/>
<path d="M245 199.5H238.5V206H245V199.5Z" fill="#333333"/>
<path d="M11 206H4.5V212.5H11V206Z" fill="#333333"/>
<path d="M50 206H43.5V212.5H50V206Z" fill="#333333"/>
<path d="M63 206H56.5V212.5H63V206Z" fill="#333333"/>
<path d="M76 206H69.5V212.5H76V206Z" fill="#333333"/>
<path d="M89 206H82.5V212.5H89V206Z" fill="#333333"/>
<path d="M108.5 206H102V212.5H108.5V206Z" fill="#333333"/>
<path d="M134.5 206H128V212.5H134.5V206Z" fill="#333333"/>
<path d="M141 206H134.5V212.5H141V206Z" fill="#333333"/>
<path d="M160.5 206H154V212.5H160.5V206Z" fill="#333333"/>
<path d="M167 206H160.5V212.5H167V206Z" fill="#333333"/>
<path d="M193 206H186.5V212.5H193V206Z" fill="#333333"/>
<path d="M219 206H212.5V212.5H219V206Z" fill="#333333"/>
<path d="M232 206H225.5V212.5H232V206Z" fill="#333333"/>
<path d="M238.5 206H232V212.5H238.5V206Z" fill="#333333"/>
<path d="M245 206H238.5V212.5H245V206Z" fill="#333333"/>
<path d="M11 212.5H4.5V219H11V212.5Z" fill="#333333"/>
<path d="M24 212.5H17.5V219H24V212.5Z" fill="#333333"/>
<path d="M30.5 212.5H24V219H30.5V212.5Z" fill="#333333"/>
<path d="M37 212.5H30.5V219H37V212.5Z" fill="#333333"/>
<path d="M50 212.5H43.5V219H50V212.5Z" fill="#333333"/>
<path d="M82.5 212.5H76V219H82.5V212.5Z" fill="#333333"/>
<path d="M108.5 212.5H102V219H108.5V212.5Z" fill="#333333"/>
<path d="M115 212.5H108.5V219H115V212.5Z" fill="#333333"/>
<path d="M128 212.5H121.5V219H128V212.5Z" fill="#333333"/>
<path d="M160.5 212.5H154V219H160.5V212.5Z" fill="#333333"/>
<path d="M173.5 212.5H167V219H173.5V212.5Z" fill="#333333"/>
<path d="M193 212.5H186.5V219H193V212.5Z" fill="#333333"/>
<path d="M199.5 212.5H193V219H199.5V212.5Z" fill="#333333"/>
<path d="M206 212.5H199.5V219H206V212.5Z" fill="#333333"/>
<path d="M212.5 212.5H206V219H212.5V212.5Z" fill="#333333"/>
<path d="M219 212.5H212.5V219H219V212.5Z" fill="#333333"/>
<path d="M225.5 212.5H219V219H225.5V212.5Z" fill="#333333"/>
<path d="M232 212.5H225.5V219H232V212.5Z" fill="#333333"/>
<path d="M245 212.5H238.5V219H245V212.5Z" fill="#333333"/>
<path d="M11 219H4.5V225.5H11V219Z" fill="#333333"/>
<path d="M24 219H17.5V225.5H24V219Z" fill="#333333"/>
<path d="M30.5 219H24V225.5H30.5V219Z" fill="#333333"/>
<path d="M37 219H30.5V225.5H37V219Z" fill="#333333"/>
<path d="M50 219H43.5V225.5H50V219Z" fill="#333333"/>
<path d="M82.5 219H76V225.5H82.5V219Z" fill="#333333"/>
<path d="M89 219H82.5V225.5H89V219Z" fill="#333333"/>
<path d="M121.5 219H115V225.5H121.5V219Z" fill="#333333"/>
<path d="M134.5 219H128V225.5H134.5V219Z" fill="#333333"/>
<path d="M141 219H134.5V225.5H141V219Z" fill="#333333"/>
<path d="M147.5 219H141V225.5H147.5V219Z" fill="#333333"/>
<path d="M180 219H173.5V225.5H180V219Z" fill="#333333"/>
<path d="M186.5 219H180V225.5H186.5V219Z" fill="#333333"/>
<path d="M193 219H186.5V225.5H193V219Z" fill="#333333"/>
<path d="M238.5 219H232V225.5H238.5V219Z" fill="#333333"/>
<path d="M11 225.5H4.5V232H11V225.5Z" fill="#333333"/>
<path d="M24 225.5H17.5V232H24V225.5Z" fill="#333333"/>
<path d="M30.5 225.5H24V232H30.5V225.5Z" fill="#333333"/>
<path d="M37 225.5H30.5V232H37V225.5Z" fill="#333333"/>
<path d="M50 225.5H43.5V232H50V225.5Z" fill="#333333"/>
<path d="M63 225.5H56.5V232H63V225.5Z" fill="#333333"/>
<path d="M69.5 225.5H63V232H69.5V225.5Z" fill="#333333"/>
<path d="M76 225.5H69.5V232H76V225.5Z" fill="#333333"/>
<path d="M95.5 225.5H89V232H95.5V225.5Z" fill="#333333"/>
<path d="M102 225.5H95.5V232H102V225.5Z" fill="#333333"/>
<path d="M108.5 225.5H102V232H108.5V225.5Z" fill="#333333"/>
<path d="M115 225.5H108.5V232H115V225.5Z" fill="#333333"/>
<path d="M121.5 225.5H115V232H121.5V225.5Z" fill="#333333"/>
<path d="M154 225.5H147.5V232H154V225.5Z" fill="#333333"/>
<path d="M160.5 225.5H154V232H160.5V225.5Z" fill="#333333"/>
<path d="M193 225.5H186.5V232H193V225.5Z" fill="#333333"/>
<path d="M199.5 225.5H193V232H199.5V225.5Z" fill="#333333"/>
<path d="M206 225.5H199.5V232H206V225.5Z" fill="#333333"/>
<path d="M219 225.5H212.5V232H219V225.5Z" fill="#333333"/>
<path d="M225.5 225.5H219V232H225.5V225.5Z" fill="#333333"/>
<path d="M238.5 225.5H232V232H238.5V225.5Z" fill="#333333"/>
<path d="M245 225.5H238.5V232H245V225.5Z" fill="#333333"/>
<path d="M11 232H4.5V238.5H11V232Z" fill="#333333"/>
<path d="M50 232H43.5V238.5H50V232Z" fill="#333333"/>
<path d="M69.5 232H63V238.5H69.5V232Z" fill="#333333"/>
<path d="M95.5 232H89V238.5H95.5V232Z" fill="#333333"/>
<path d="M102 232H95.5V238.5H102V232Z" fill="#333333"/>
<path d="M128 232H121.5V238.5H128V232Z" fill="#333333"/>
<path d="M141 232H134.5V238.5H141V232Z" fill="#333333"/>
<path d="M173.5 232H167V238.5H173.5V232Z" fill="#333333"/>
<path d="M199.5 232H193V238.5H199.5V232Z" fill="#333333"/>
<path d="M212.5 232H206V238.5H212.5V232Z" fill="#333333"/>
<path d="M219 232H212.5V238.5H219V232Z" fill="#333333"/>
<path d="M225.5 232H219V238.5H225.5V232Z" fill="#333333"/>
<path d="M232 232H225.5V238.5H232V232Z" fill="#333333"/>
<path d="M238.5 232H232V238.5H238.5V232Z" fill="#333333"/>
<path d="M245 232H238.5V238.5H245V232Z" fill="#333333"/>
<path d="M11 238.5H4.5V245H11V238.5Z" fill="#333333"/>
<path d="M17.5 238.5H11V245H17.5V238.5Z" fill="#333333"/>
<path d="M24 238.5H17.5V245H24V238.5Z" fill="#333333"/>
<path d="M30.5 238.5H24V245H30.5V238.5Z" fill="#333333"/>
<path d="M37 238.5H30.5V245H37V238.5Z" fill="#333333"/>
<path d="M43.5 238.5H37V245H43.5V238.5Z" fill="#333333"/>
<path d="M50 238.5H43.5V245H50V238.5Z" fill="#333333"/>
<path d="M69.5 238.5H63V245H69.5V238.5Z" fill="#333333"/>
<path d="M82.5 238.5H76V245H82.5V238.5Z" fill="#333333"/>
<path d="M89 238.5H82.5V245H89V238.5Z" fill="#333333"/>
<path d="M102 238.5H95.5V245H102V238.5Z" fill="#333333"/>
<path d="M108.5 238.5H102V245H108.5V238.5Z" fill="#333333"/>
<path d="M128 238.5H121.5V245H128V238.5Z" fill="#333333"/>
<path d="M141 238.5H134.5V245H141V238.5Z" fill="#333333"/>
<path d="M154 238.5H147.5V245H154V238.5Z" fill="#333333"/>
<path d="M160.5 238.5H154V245H160.5V238.5Z" fill="#333333"/>
<path d="M167 238.5H160.5V245H167V238.5Z" fill="#333333"/>
<path d="M186.5 238.5H180V245H186.5V238.5Z" fill="#333333"/>
<path d="M199.5 238.5H193V245H199.5V238.5Z" fill="#333333"/>
<path d="M219 238.5H212.5V245H219V238.5Z" fill="#333333"/>
<path d="M225.5 238.5H219V245H225.5V238.5Z" fill="#333333"/>
<path d="M245 238.5H238.5V245H245V238.5Z" fill="#333333"/>
</g>
<defs>
<clipPath id="clip0_33_168">
<rect width="250" height="250" fill="white"/>
</clipPath>
</defs>
</svg>
