<svg width="150" height="150" viewBox="0 0 150 150" fill="none" xmlns="http://www.w3.org/2000/svg">
<rect x="1" y="1" width="148" height="148" rx="14" stroke="#BDBDBD" stroke-width="2" stroke-dasharray="4 4"/>
<path d="M93.6667 72.3333H77.6667V56.3333C77.6667 55.6261 77.3857 54.9478 76.8856 54.4477C76.3855 53.9476 75.7072 53.6667 75 53.6667C74.2928 53.6667 73.6145 53.9476 73.1144 54.4477C72.6143 54.9478 72.3333 55.6261 72.3333 56.3333V72.3333H56.3333C55.6261 72.3333 54.9478 72.6143 54.4477 73.1144C53.9476 73.6145 53.6667 74.2928 53.6667 75C53.6667 75.7072 53.9476 76.3855 54.4477 76.8856C54.9478 77.3857 55.6261 77.6667 56.3333 77.6667H72.3333V93.6667C72.3333 94.3739 72.6143 95.0522 73.1144 95.5523C73.6145 96.0524 74.2928 96.3333 75 96.3333C75.7072 96.3333 76.3855 96.0524 76.8856 95.5523C77.3857 95.0522 77.6667 94.3739 77.6667 93.6667V77.6667H93.6667C94.3739 77.6667 95.0522 77.3857 95.5523 76.8856C96.0524 76.3855 96.3333 75.7072 96.3333 75C96.3333 74.2928 96.0524 73.6145 95.5523 73.1144C95.0522 72.6143 94.3739 72.3333 93.6667 72.3333Z" fill="#BDBDBD"/>
</svg>
